<svg width="239" height="330" viewBox="0 0 239 330" fill="none" xmlns="http://www.w3.org/2000/svg">
<path d="M22.7795 164.992L31.4368 161.874L31.4393 161.873C63.154 150.443 88.1282 125.469 99.5583 93.7542L99.5592 93.7518L102.677 85.0945L105.794 93.7518L105.795 93.7542C117.225 125.469 142.199 150.443 173.914 161.873L173.916 161.874L182.574 164.992L173.916 168.109L173.914 168.11C142.199 179.54 117.225 204.514 105.795 236.229L105.794 236.231L102.677 244.889L99.5592 236.231L99.5583 236.229C88.1282 204.514 63.154 179.54 31.4393 168.11L31.4368 168.109L22.7795 164.992Z" stroke="white" stroke-width="18.8"/>
<path d="M223.15 1.40769L227.932 14.6734C233.243 29.3962 244.841 40.9934 259.563 46.3044L272.829 51.0867C274.028 51.5214 274.028 53.2134 272.829 53.6482L259.563 58.4304C244.841 63.7414 233.243 75.3387 227.932 90.0614L223.15 103.327C222.715 104.526 221.023 104.526 220.589 103.327L215.806 90.0614C210.495 75.3387 198.898 63.7414 184.175 58.4304L170.91 53.6482C169.711 53.2134 169.711 51.5214 170.91 51.0867L184.175 46.3044C198.898 40.9934 210.495 29.3962 215.806 14.6734L220.589 1.40769C221.023 0.197438 222.727 0.197438 223.15 1.40769Z" fill="white"/>
<path d="M223.15 226.698L227.932 239.964C233.243 254.687 244.841 266.284 259.563 271.595L272.829 276.377C274.028 276.812 274.028 278.504 272.829 278.939L259.563 283.721C244.841 289.032 233.243 300.629 227.932 315.352L223.15 328.618C222.715 329.816 221.023 329.816 220.589 328.618L215.806 315.352C210.495 300.629 198.898 289.032 184.175 283.721L170.91 278.939C169.711 278.504 169.711 276.812 170.91 276.377L184.175 271.595C198.898 266.284 210.495 254.687 215.806 239.964L220.589 226.698C221.023 225.5 222.727 225.5 223.15 226.698Z" fill="white"/>
</svg>
