<svg width="105" height="40" viewBox="0 0 105 40" fill="none" xmlns="http://www.w3.org/2000/svg">
<path d="M3.56028 31.0603V16.4955H0.378906V12.8419H3.5727V5.94482H7.74825V12.8419H10.942V16.4955H7.73583V31.0603H3.56028Z" fill="#599D15"/>
<path d="M31.6702 31.0603H27.4946V28.6991C26.749 29.7554 25.8791 30.5259 24.8849 31.0478C23.8907 31.5574 22.7598 31.8183 21.4674 31.8183C18.895 31.8183 16.8693 30.936 15.3905 29.1713C13.9116 27.4067 13.166 24.9958 13.166 21.9387C13.166 19.0307 13.9241 16.682 15.4278 14.8924C16.9439 13.1029 18.9074 12.2082 21.3431 12.2082C22.8344 12.2082 24.102 12.5188 25.1583 13.1402C26.2146 13.7616 26.9851 14.6563 27.4698 15.8245V12.8419H31.6702V31.0603ZM27.6065 21.889C27.6065 20 27.1715 18.5336 26.2892 17.4897C25.4068 16.4334 24.189 15.9115 22.6107 15.9115C21.0325 15.9115 19.7897 16.4583 18.895 17.5394C17.9878 18.6206 17.5404 20.1243 17.5404 22.0505C17.5404 23.9892 17.9754 25.4804 18.8453 26.5243C19.7152 27.5806 20.9455 28.1026 22.5361 28.1026C24.0398 28.1026 25.2577 27.5309 26.2022 26.3876C27.1342 25.2567 27.6065 23.7531 27.6065 21.889Z" fill="#599D15"/>
<path d="M37.4355 39.635V12.8419H41.6111V15.8245C42.0958 14.6688 42.8787 13.7864 43.9474 13.1526C45.0162 12.5188 46.2962 12.2082 47.7874 12.2082C50.2107 12.2082 52.1742 13.1029 53.6779 14.8924C55.1816 16.682 55.9397 19.0307 55.9397 21.9387C55.9397 24.9958 55.1941 27.4191 53.7152 29.1713C52.2364 30.936 50.2107 31.8183 47.6383 31.8183C46.3583 31.8183 45.215 31.5574 44.2208 31.0478C43.2266 30.5383 42.3567 29.7554 41.6111 28.6991V39.635H37.4355ZM41.462 21.889C41.462 23.7779 41.9342 25.2816 42.8787 26.4001C43.8231 27.5309 45.0659 28.0902 46.5944 28.0902C48.1727 28.0902 49.3905 27.5682 50.2604 26.5119C51.1304 25.4556 51.5529 23.9643 51.5529 22.0381C51.5529 20.1119 51.1055 18.6082 50.1983 17.527C49.2911 16.4458 48.0608 15.899 46.4826 15.899C44.9043 15.899 43.674 16.421 42.7917 17.4773C41.9093 18.546 41.462 20.0125 41.462 21.889Z" fill="#599D15"/>
<path d="M60.5391 31.0105V6.69045L65.1123 5.49743V13.8237H77.378V1.89354L81.9512 0.712952V31.023H77.378V17.9122H65.1123V31.023H60.5391V31.0105Z" fill="#599D15"/>
<path d="M94.0681 17.0672C96.392 16.7938 98.1443 15.9487 99.3248 14.5693C100.518 13.1899 101.102 11.2637 101.102 8.80308C101.102 7.41123 100.841 6.1188 100.331 4.95064C99.8095 3.78248 99.0763 2.82558 98.1318 2.07995C97.3365 1.47101 96.3796 1.02363 95.2487 0.762662C94.1178 0.50169 92.5396 0.36499 90.5015 0.36499H83.5547V31.023H88.2273V17.3033H88.799L98.9893 31.023H104.619L94.0681 17.0672ZM87.0964 8.45512C87.0964 5.87025 89.1966 3.78248 91.7691 3.78248C94.3539 3.78248 96.4417 5.87025 96.4417 8.45512C96.4417 9.42444 96.1559 10.3192 95.6464 11.0524L96.8518 12.2578C96.9637 12.3697 96.9637 12.5312 96.8518 12.6431L96.0441 13.4509C95.9322 13.5627 95.7582 13.5627 95.6464 13.4509L94.4534 12.2578C93.6953 12.8046 92.7633 13.1278 91.7442 13.1278C89.1842 13.1402 87.0964 11.04 87.0964 8.45512Z" fill="#599D15"/>
</svg>

