<svg width="67" height="66" viewBox="0 0 67 66" fill="none" xmlns="http://www.w3.org/2000/svg">
<rect x="5.5" y="5" width="56" height="56" rx="28" fill="#E8EFE4"/>
<rect x="5.5" y="5" width="56" height="56" rx="28" stroke="#F4F7F2" stroke-width="10"/>
<path d="M42.8334 39.9998H35.8334M42.8334 39.9998C44.1221 39.9998 45.1668 41.0445 45.1668 42.3332C45.1668 43.6218 44.1221 44.6665 42.8334 44.6665H35.8334C34.5448 44.6665 33.5001 43.6218 33.5001 42.3332C33.5001 41.0445 34.5448 39.9998 35.8334 39.9998M42.8334 39.9998C44.1221 39.9998 45.1668 38.9552 45.1668 37.6665C45.1668 36.3778 44.1221 35.3332 42.8334 35.3332H42.0556M35.8334 39.9998C34.5448 39.9998 33.5001 38.9552 33.5001 37.6665C33.5001 36.3778 34.5448 35.3332 35.8334 35.3332H42.0556M35.4548 44.6665H31.5454C26.7675 44.6665 23.3937 39.9856 24.9046 35.4529L26.0713 31.9529C27.0241 29.0945 29.6991 27.1665 32.7121 27.1665H34.2881C37.3011 27.1665 39.9761 29.0945 40.9289 31.9529L42.0556 35.3332" stroke="#599D15" stroke-width="1.5" stroke-linejoin="round"/>
<path d="M35.9332 27.1668L31.0661 27.1668L29.4315 25.2919C27.8292 23.4541 29.6985 20.707 32.0379 21.4617L33.1203 21.8108C33.3668 21.8903 33.6326 21.8903 33.879 21.8108L34.9614 21.4617C37.3009 20.707 39.1702 23.4541 37.5678 25.2919L35.9332 27.1668Z" stroke="#599D15" stroke-width="1.5" stroke-linejoin="round"/>
</svg>
