<svg width="67" height="66" viewBox="0 0 67 66" fill="none" xmlns="http://www.w3.org/2000/svg">
<rect x="5.5" y="5" width="56" height="56" rx="28" fill="#E8EFE4"/>
<rect x="5.5" y="5" width="56" height="56" rx="28" stroke="#F4F7F2" stroke-width="10"/>
<path d="M35.9804 22.5H39.2765C39.9851 22.5 40.6599 22.8068 41.1306 23.3431L44.5397 27.2267C45.3309 28.128 45.378 29.4714 44.6519 30.4272L35.4659 42.5196C34.4729 43.8268 32.5264 43.8268 31.5334 42.5196L22.3475 30.4272C21.6214 29.4714 21.6685 28.128 22.4596 27.2267L25.8687 23.3431C26.3395 22.8068 27.0142 22.5 27.7228 22.5H31.2946M35.9804 22.5L38.4611 28.78M35.9804 22.5H31.2946M38.4611 28.78H44.6629M38.4611 28.78L33.4997 43.224L28.5383 28.78M38.4611 28.78H28.5383M31.2946 22.5L28.5383 28.78M22.3365 28.78H28.5383" stroke="#599D15" stroke-width="1.5" stroke-linecap="round" stroke-linejoin="round"/>
</svg>
