<svg width="67" height="66" viewBox="0 0 67 66" fill="none" xmlns="http://www.w3.org/2000/svg">
<rect x="5.5" y="5" width="56" height="56" rx="28" fill="#E8EFE4"/>
<rect x="5.5" y="5" width="56" height="56" rx="28" stroke="#F4F7F2" stroke-width="10"/>
<path d="M33.4996 21.3335V23.6668M43.9996 24.8335L42.2496 26.5835M22.9996 24.8335L24.7496 26.5835M33.4997 44.6668C37.7046 44.6668 41.4486 41.9304 43.8564 39.6255C45.603 37.9536 45.603 35.0467 43.8564 33.3748C41.4486 31.0699 37.7046 28.3335 33.4997 28.3335C29.2948 28.3335 25.5507 31.0699 23.1429 33.3748C21.3964 35.0467 21.3964 37.9536 23.1429 39.6255C25.5507 41.9304 29.2948 44.6668 33.4997 44.6668ZM36.9996 36.5002C36.9996 38.4332 35.4326 40.0002 33.4996 40.0002C31.5666 40.0002 29.9996 38.4332 29.9996 36.5002C29.9996 34.5672 31.5666 33.0002 33.4996 33.0002C35.4326 33.0002 36.9996 34.5672 36.9996 36.5002Z" stroke="#599D15" stroke-width="1.5" stroke-linecap="round"/>
</svg>
